#define maschinegun_width 60
#define maschinegun_height 23

static unsigned char maschinegun_bits[] = {
 0x07, 0x00, 0x00, 0x00, 0x00, 0x00, 0x00, 0x08, 0x07, 0x00, 0x00, 0x00,
 0x00, 0x00, 0x00, 0x0e, 0x07, 0x00, 0xf8, 0xff, 0xff, 0xff, 0xff, 0x0f,
 0x07, 0x00, 0xf8, 0xff, 0xff, 0xff, 0xff, 0x0f, 0xff, 0xff, 0x3f, 0x70,
 0xf8, 0xff, 0xff, 0x0f, 0xff, 0xff, 0x3f, 0xf0, 0xff, 0xff, 0xff, 0x01,
 0xff, 0xff, 0x3f, 0xf0, 0xff, 0xff, 0xff, 0x01, 0x07, 0x00, 0xf8, 0xff,
 0xef, 0xac, 0xaa, 0x01, 0x07, 0x00, 0xf8, 0xff, 0xef, 0xd4, 0xb6, 0x01,
 0x07, 0x00, 0xf8, 0xff, 0xef, 0xfc, 0xff, 0x00, 0x00, 0x00, 0xf8, 0xff,
 0x0f, 0x00, 0x00, 0x00, 0x00, 0x00, 0xf8, 0x88, 0x0b, 0x00, 0x00, 0x00,
 0x00, 0x00, 0x98, 0x88, 0x0d, 0x00, 0x00, 0x00, 0x00, 0x00, 0xc8, 0x88,
 0x0e, 0x00, 0x00, 0x00, 0x00, 0x00, 0xf8, 0x8f, 0x0f, 0x00, 0x00, 0x00,
 0x00, 0x00, 0xe8, 0x8f, 0x0b, 0x00, 0x00, 0x00, 0x00, 0x00, 0xd8, 0x80,
 0x0d, 0x00, 0x00, 0x00, 0x00, 0x00, 0xb8, 0x80, 0x0e, 0x00, 0x00, 0x00,
 0x00, 0x00, 0xe8, 0x80, 0x0f, 0x00, 0x00, 0x00, 0x00, 0x00, 0xf8, 0x80,
 0x0b, 0x00, 0x00, 0x00, 0x00, 0x00, 0x00, 0x80, 0x0d, 0x00, 0x00, 0x00,
 0x00, 0x00, 0x00, 0x80, 0x0e, 0x00, 0x00, 0x00, 0x00, 0x00, 0x00, 0x80,
 0x0f, 0x00, 0x00,
 0x00};
