#define pistol_width 54
#define pistol_height 39

static unsigned char pistol_bits[] = {
 0xc0, 0xff, 0xff, 0xff, 0xff, 0xff, 0x3f, 0xc0, 0xff, 0xff, 0xff, 0xff,
 0xff, 0x3f, 0xc0, 0xf3, 0xff, 0x7f, 0xef, 0xfd, 0x3f, 0xc7, 0xfb, 0x00,
 0xfe, 0xde, 0xfb, 0x3f, 0xc7, 0xff, 0xff, 0xff, 0xff, 0xff, 0x3f, 0xc7,
 0xff, 0xff, 0xff, 0xff, 0xff, 0x3f, 0xf8, 0xff, 0xff, 0xff, 0xff, 0xff,
 0x00, 0xf8, 0xff, 0xff, 0xff, 0xff, 0xff, 0x00, 0xf8, 0xff, 0xff, 0xff,
 0xff, 0xff, 0x00, 0xc0, 0xff, 0xff, 0xff, 0xff, 0xff, 0x00, 0xc0, 0xff,
 0xff, 0xff, 0xff, 0xff, 0x00, 0xc0, 0xff, 0xff, 0xff, 0xff, 0xff, 0x00,
 0xc0, 0xff, 0x03, 0xff, 0xff, 0xff, 0x07, 0xc0, 0xff, 0x03, 0xff, 0xff,
 0xff, 0x07, 0xc0, 0xff, 0x03, 0xff, 0xff, 0x7f, 0x01, 0xc0, 0xff, 0x03,
 0xff, 0xff, 0xff, 0x00, 0xc0, 0xff, 0x03, 0xff, 0xff, 0xff, 0x07, 0xc0,
 0xff, 0x03, 0xff, 0xff, 0xff, 0x07, 0xc0, 0xff, 0xff, 0x07, 0x00, 0x00,
 0x00, 0xc0, 0xff, 0xff, 0x07, 0x00, 0x00, 0x00, 0xc0, 0xff, 0xfd, 0x07,
 0x00, 0x00, 0x00, 0xc0, 0xff, 0x02, 0x00, 0x00, 0x00, 0x00, 0xc0, 0x7f,
 0x03, 0x00, 0x00, 0x00, 0x00, 0xc0, 0x7f, 0x03, 0x00, 0x00, 0x00, 0x00,
 0xc0, 0xbf, 0x03, 0x00, 0x00, 0x00, 0x00, 0xc0, 0xdf, 0x03, 0x00, 0x00,
 0x00, 0x00, 0xc0, 0xef, 0x03, 0x00, 0x00, 0x00, 0x00, 0xc0, 0xf7, 0x03,
 0x00, 0x00, 0x00, 0x00, 0xc0, 0xfb, 0x03, 0x00, 0x00, 0x00, 0x00, 0xc0,
 0xfb, 0x03, 0x00, 0x00, 0x00, 0x00, 0xc0, 0xfc, 0x03, 0x00, 0x00, 0x00,
 0x00, 0xc0, 0xfe, 0x03, 0x00, 0x00, 0x00, 0x00, 0x80, 0xff, 0x03, 0x00,
 0x00, 0x00, 0x00, 0x00, 0xfe, 0x03, 0x00, 0x00, 0x00, 0x00, 0x00, 0xfe,
 0x03, 0x00, 0x00, 0x00, 0x00, 0x00, 0xfe, 0x03, 0x00, 0x00, 0x00, 0x00,
 0x00, 0xfe, 0x03, 0x00, 0x00, 0x00, 0x00, 0x00, 0xfe, 0x03, 0x00, 0x00,
 0x00, 0x00, 0x00, 0xfe, 0x03, 0x00, 0x00, 0x00,
 0x00};
