#define pistol_burst_width 54
#define pistol_burst_height 39

static unsigned char pistol_burst_bits[] = {
 0xc0, 0xff, 0xff, 0xff, 0xff, 0xff, 0x3f, 0xc0, 0xff, 0xff, 0xff, 0xff,
 0xff, 0x3f, 0xc0, 0xf3, 0xff, 0x7f, 0xef, 0xfd, 0x3f, 0xc7, 0xfb, 0x00,
 0xfe, 0xde, 0xfb, 0x3f, 0xc7, 0xff, 0xff, 0xff, 0xff, 0xff, 0x3f, 0xc7,
 0xff, 0xff, 0xff, 0xff, 0xff, 0x3f, 0xf8, 0xff, 0xff, 0xff, 0xff, 0xff,
 0x00, 0xf8, 0xff, 0xff, 0xff, 0xff, 0xff, 0x00, 0xf8, 0xff, 0xff, 0xff,
 0xff, 0xff, 0x00, 0xc0, 0xff, 0xff, 0xff, 0xff, 0xff, 0x00, 0xc0, 0xff,
 0xff, 0xff, 0xff, 0xff, 0x00, 0xc0, 0xff, 0xff, 0xff, 0xff, 0xff, 0x00,
 0xc0, 0xff, 0x03, 0xff, 0xff, 0xff, 0x07, 0xc0, 0xff, 0x03, 0xff, 0xff,
 0xff, 0x07, 0xc0, 0xff, 0x03, 0xff, 0xff, 0x7f, 0x01, 0xc0, 0xff, 0x03,
 0xff, 0xff, 0xff, 0x00, 0xc0, 0xff, 0x03, 0xff, 0xff, 0xff, 0x07, 0xc0,
 0xff, 0x03, 0xff, 0xff, 0xff, 0x07, 0xc0, 0xff, 0xff, 0x07, 0x00, 0x00,
 0x00, 0xc0, 0xff, 0xff, 0x07, 0x00, 0x00, 0x00, 0xc0, 0xff, 0xfd, 0x07,
 0x00, 0x00, 0x00, 0xc0, 0xff, 0x02, 0x00, 0x00, 0x00, 0x00, 0xc0, 0x7f,
 0x03, 0x00, 0x00, 0x00, 0x00, 0xc0, 0x7f, 0x03, 0x00, 0x00, 0x00, 0x00,
 0xc0, 0xbf, 0xb3, 0xff, 0x60, 0xff, 0x01, 0xc0, 0xdf, 0xb3, 0xff, 0x61,
 0xff, 0x03, 0xc0, 0xef, 0xb3, 0xff, 0x63, 0xff, 0x07, 0xc0, 0xf7, 0xb3,
 0xff, 0x61, 0xff, 0x03, 0xc0, 0xfb, 0xb3, 0xff, 0x60, 0xff, 0x01, 0xc0,
 0xfb, 0x03, 0x00, 0x00, 0x00, 0x00, 0xc0, 0xfc, 0x03, 0x00, 0x00, 0x00,
 0x00, 0xc0, 0xfe, 0x03, 0xd8, 0x7f, 0x00, 0x00, 0x80, 0xff, 0x03, 0xd8,
 0xff, 0x00, 0x00, 0x00, 0xfe, 0x03, 0xd8, 0xff, 0x01, 0x00, 0x00, 0xfe,
 0x03, 0xd8, 0xff, 0x00, 0x00, 0x00, 0xfe, 0x03, 0xd8, 0x7f, 0x00, 0x00,
 0x00, 0xfe, 0x03, 0x00, 0x00, 0x00, 0x00, 0x00, 0xfe, 0x03, 0x00, 0x00,
 0x00, 0x00, 0x00, 0xfe, 0x03, 0x00, 0x00, 0x00,
 0x00};
