#define sniper_width 64
#define sniper_height 12

static unsigned char sniper_bits[] = {
 0x00, 0x00, 0x00, 0x00, 0x00, 0x00, 0x00, 0x20, 0x00, 0xe0, 0xff, 0xff,
 0xff, 0xff, 0xff, 0xff, 0x00, 0xe0, 0xf9, 0xf3, 0xf3, 0xf9, 0xfb, 0xff,
 0x00, 0xe0, 0xfc, 0xf9, 0xf9, 0xfc, 0xfd, 0xff, 0x00, 0x80, 0xfe, 0xfc,
 0x7c, 0xfe, 0xfe, 0x01, 0x00, 0x80, 0x7f, 0x7e, 0x3e, 0x7f, 0xff, 0xff,
 0xff, 0xff, 0xff, 0xdf, 0xff, 0xff, 0xff, 0x01, 0x8f, 0x9f, 0x1f, 0xef,
 0x00, 0x00, 0x00, 0x00, 0xe7, 0xef, 0x2f, 0xf7, 0x00, 0x00, 0x00, 0x00,
 0xf3, 0xf7, 0xef, 0xff, 0x00, 0x00, 0x00, 0x00, 0xf9, 0xf7, 0x0f, 0x00,
 0x00, 0x00, 0x00, 0x00, 0xff, 0xff, 0x0f, 0x00, 0x00, 0x00, 0x00,
 0x00};
